# Blender v2.79 (sub 0) OBJ File: ''
# www.blender.org
mtllib bakedcubes.mtl
o Cube
v -0.159105 0.290609 0.318209
v 0.159105 0.608818 0.318209
v -0.384112 0.515616 0.000000
v -0.065903 0.833826 0.000000
v 0.065903 0.065601 -0.000000
v 0.384112 0.383810 -0.000000
v -0.159105 0.290609 -0.318209
v 0.159105 0.608818 -0.318209
v 0.920448 0.370161 0.159105
v 1.079552 0.529265 0.159105
v 0.807944 0.482665 0.000000
v 0.967048 0.641769 -0.000000
v 1.032952 0.257657 -0.000000
v 1.192056 0.416761 -0.000000
v 0.920448 0.370161 -0.159105
v 1.079552 0.529265 -0.159105
v -1.079552 0.370161 0.159105
v -0.920448 0.529265 0.159105
v -1.192056 0.482665 0.000000
v -1.032952 0.641769 0.000000
v -0.967049 0.257657 0.000000
v -0.807944 0.416761 0.000000
v -1.079552 0.370161 -0.159104
v -0.920448 0.529265 -0.159104
v -0.079552 0.370161 -0.840895
v 0.079552 0.529265 -0.840895
v -0.192056 0.482665 -1.000000
v -0.032952 0.641769 -1.000000
v 0.032952 0.257657 -1.000000
v 0.192056 0.416761 -1.000000
v -0.079552 0.370161 -1.159104
v 0.079552 0.529265 -1.159104
v -0.079552 0.370161 1.159105
v 0.079552 0.529265 1.159105
v -0.192056 0.482665 1.000000
v -0.032952 0.641769 1.000000
v 0.032952 0.257657 1.000000
v 0.192056 0.416761 1.000000
v -0.079552 0.370161 0.840895
v 0.079552 0.529265 0.840895
v -5.058465 0.058980 5.023299
v 5.023101 0.058979 5.023299
v -5.058465 0.058981 -5.058268
v 5.023101 0.058980 -5.058268
vt 0.822452 0.148017
vt 0.952891 0.159392
vt 0.876481 0.186851
vt 0.898861 0.120559
vt 0.952891 0.077014
vt 0.678012 0.763559
vt 0.787134 0.652642
vt 0.787134 0.763559
vt 0.668988 0.823823
vt 0.778111 0.934741
vt 0.668990 0.934741
vt 0.674876 0.500845
vt 0.786125 0.613924
vt 0.674876 0.613924
vt 0.822452 0.065640
vt 0.898862 0.038181
vt 0.678012 0.652642
vt 0.778111 0.823823
vt 0.786125 0.500845
vt 0.878417 0.792255
vt 0.827426 0.906654
vt 0.827425 0.828905
vt 0.950534 0.895920
vt 0.899541 0.932570
vt 0.503949 0.626926
vt 0.389945 0.511048
vt 0.503949 0.511048
vt 0.537310 0.662577
vt 0.635726 0.762612
vt 0.537310 0.762612
vt 0.495426 0.801468
vt 0.384161 0.914561
vt 0.384161 0.801469
vt 0.878419 0.870003
vt 0.950534 0.818170
vt 0.827425 0.706927
vt 0.950534 0.717662
vt 0.878418 0.743578
vt 0.899540 0.603262
vt 0.950534 0.639913
vt 0.635726 0.916887
vt 0.537310 0.816854
vt 0.635726 0.816852
vt 0.040978 0.914561
vt 0.152240 0.801468
vt 0.152242 0.914562
vt 0.384338 0.659817
vt 0.496483 0.773806
vt 0.384338 0.773806
vt 0.899539 0.681011
vt 0.827425 0.629179
vt 0.878417 0.225277
vt 0.827425 0.339675
vt 0.827425 0.261927
vt 0.878419 0.303025
vt 0.899539 0.365592
vt 0.038313 0.511049
vt 0.152317 0.626927
vt 0.038313 0.626927
vt 0.150583 0.773806
vt 0.038439 0.659817
vt 0.150583 0.659817
vt 0.212570 0.801468
vt 0.323833 0.914562
vt 0.212570 0.914561
vt 0.950534 0.328942
vt 0.950534 0.251193
vt 0.878419 0.414269
vt 0.827426 0.528668
vt 0.827425 0.450920
vt 0.950534 0.517934
vt 0.899541 0.554585
vt 0.211388 0.773806
vt 0.323533 0.659817
vt 0.323531 0.773805
vt 0.328132 0.511049
vt 0.214130 0.626927
vt 0.214130 0.511048
vt 0.537310 0.508302
vt 0.635726 0.608337
vt 0.537311 0.608336
vt 0.950534 0.440185
vt 0.389946 0.626927
vt 0.635726 0.662579
vt 0.495426 0.914562
vt 0.537311 0.916888
vt 0.040979 0.801468
vt 0.496483 0.659817
vt 0.152317 0.511049
vt 0.038438 0.773806
vt 0.323834 0.801468
vt 0.878419 0.492018
vt 0.211388 0.659816
vt 0.328131 0.626927
vt 0.635727 0.508302
vt 0.622780 0.035778
vt 0.215063 0.450200
vt 0.215063 0.035778
vt 0.622780 0.450200
vn -0.5000 0.5000 0.7071
vn -0.5000 0.5000 -0.7071
vn 0.5000 -0.5000 -0.7071
vn 0.5000 -0.5000 0.7071
vn -0.7071 -0.7071 0.0000
vn 0.7071 0.7071 0.0000
vn 0.0000 1.0000 0.0000
usemtl Material.004
s off
f 2/1/1 3/2/1 1/3/1
f 4/4/2 7/5/2 3/2/2
f 8/6/3 5/7/3 7/8/3
f 6/9/4 1/10/4 5/11/4
f 3/12/5 5/13/5 1/14/5
f 4/4/6 6/15/6 8/16/6
f 2/1/1 4/4/1 3/2/1
f 4/4/2 8/16/2 7/5/2
f 8/6/3 6/17/3 5/7/3
f 6/9/4 2/18/4 1/10/4
f 3/12/5 7/19/5 5/13/5
f 4/4/6 2/1/6 6/15/6
usemtl Material
f 10/20/1 11/21/1 9/22/1
f 11/21/2 16/23/2 15/24/2
f 16/25/3 13/26/3 15/27/3
f 14/28/4 9/29/4 13/30/4
f 15/31/5 9/32/5 11/33/5
f 12/34/6 14/35/6 16/23/6
f 18/36/1 19/37/1 17/38/1
f 19/37/2 24/39/2 23/40/2
f 24/41/3 21/42/3 23/43/3
f 22/44/4 17/45/4 21/46/4
f 19/47/5 21/48/5 17/49/5
f 20/50/6 22/51/6 24/39/6
f 26/52/1 27/53/1 25/54/1
f 28/55/2 31/56/2 27/53/2
f 32/57/3 29/58/3 31/59/3
f 30/60/4 25/61/4 29/62/4
f 31/63/5 25/64/5 27/65/5
f 32/66/6 26/52/6 30/67/6
f 34/68/1 35/69/1 33/70/1
f 35/69/2 40/71/2 39/72/2
f 40/73/3 37/74/3 39/75/3
f 38/76/4 33/77/4 37/78/4
f 39/79/5 33/80/5 35/81/5
f 40/71/6 34/68/6 38/82/6
f 10/20/1 12/34/1 11/21/1
f 11/21/2 12/34/2 16/23/2
f 16/25/3 14/83/3 13/26/3
f 14/28/4 10/84/4 9/29/4
f 15/31/5 13/85/5 9/32/5
f 12/34/6 10/20/6 14/35/6
f 18/36/1 20/50/1 19/37/1
f 19/37/2 20/50/2 24/39/2
f 24/41/3 22/86/3 21/42/3
f 22/44/4 18/87/4 17/45/4
f 19/47/5 23/88/5 21/48/5
f 20/50/6 18/36/6 22/51/6
f 26/52/1 28/55/1 27/53/1
f 28/55/2 32/66/2 31/56/2
f 32/57/3 30/89/3 29/58/3
f 30/60/4 26/90/4 25/61/4
f 31/63/5 29/91/5 25/64/5
f 32/66/6 28/55/6 26/52/6
f 34/68/1 36/92/1 35/69/1
f 35/69/2 36/92/2 40/71/2
f 40/73/3 38/93/3 37/74/3
f 38/76/4 34/94/4 33/77/4
f 39/79/5 37/95/5 33/80/5
f 40/71/6 36/92/6 34/68/6
usemtl Material.005
f 42/96/7 43/97/7 41/98/7
f 42/96/7 44/99/7 43/97/7
