# Blender v2.78 (sub 0) OBJ File: 'book.blend'
# www.blender.org
mtllib book.mtl
o Cube
v 1.114552 -0.105483 -1.797451
v 1.114552 -0.105483 1.810559
v -1.114552 -0.105483 1.810559
v -1.114551 -0.105483 -1.797451
v 1.114552 0.330460 -1.797450
v 1.114551 0.330460 1.810560
v -1.114552 0.330460 1.810558
v -1.114552 0.330460 -1.797451
vt 0.3884 0.2099
vt 0.3879 0.8276
vt 0.0063 0.8273
vt 0.0068 0.2096
vt 0.4861 0.2097
vt 0.8678 0.2097
vt 0.8678 0.8274
vt 0.4861 0.8274
vt 0.4002 0.2100
vt 0.4748 0.2100
vt 0.4746 0.8277
vt 0.4000 0.8277
vt 0.4878 0.9118
vt 0.4878 0.8372
vt 0.8694 0.8373
vt 0.8694 0.9119
vt 0.9529 0.8250
vt 0.8783 0.8250
vt 0.8789 0.2073
vt 0.9535 0.2074
vt 0.4870 0.2011
vt 0.4871 0.1265
vt 0.8687 0.1268
vt 0.8686 0.2014
vn 0.0000 -1.0000 0.0000
vn 0.0000 1.0000 0.0000
vn 1.0000 0.0000 0.0000
vn -0.0000 -0.0000 1.0000
vn -1.0000 -0.0000 -0.0000
vn 0.0000 0.0000 -1.0000
usemtl Book_Cover
s off
f 1/1/1 2/2/1 3/3/1 4/4/1
f 5/5/2 8/6/2 7/7/2 6/8/2
f 1/9/3 5/10/3 6/11/3 2/12/3
f 2/13/4 6/14/4 7/15/4 3/16/4
f 3/17/5 7/18/5 8/19/5 4/20/5
f 5/21/6 1/22/6 4/23/6 8/24/6
