# Blender v2.78 (sub 0) OBJ File: 'cookie.blend'
# www.blender.org
mtllib cookie.mtl
o Circle
v 0.000000 -0.031227 -0.058104
v -0.505785 -0.029861 -0.161817
v -0.893705 -0.029759 0.070425
v -1.033869 -0.030728 0.591322
v -0.896184 -0.031568 1.105025
v -0.525136 -0.032188 1.657276
v 0.000000 -0.027336 2.172670
v 0.525136 -0.032188 1.657276
v 0.896184 -0.031568 1.105025
v 1.033869 -0.030728 0.591322
v 0.893705 -0.029759 0.070425
v 0.505785 -0.029861 -0.161817
v -0.500000 0.174593 -0.127706
v -0.866025 0.174593 0.091322
v -1.000000 0.174593 0.591322
v -0.866025 0.174593 1.091322
v -0.500000 0.174593 1.636592
v 0.000000 0.174593 2.136148
v 0.500000 0.174593 1.636592
v 0.866025 0.174593 1.091322
v 1.000000 0.174593 0.591322
v 0.866025 0.174593 0.091322
v 0.500000 0.174593 -0.127706
v 0.000000 0.174593 -0.024672
v -0.387462 0.329333 0.067217
v -0.671103 0.329333 0.203860
v -0.774923 0.329333 0.591322
v -0.671103 0.329333 0.978783
v -0.387462 0.329333 1.441670
v 0.000000 0.329333 1.911071
v 0.387462 0.329333 1.441670
v 0.671103 0.329333 0.978783
v 0.774923 0.329333 0.591322
v 0.671103 0.329333 0.203860
v 0.387462 0.329333 0.067217
v 0.000000 0.329333 0.149478
v 0.000000 -0.030728 -2.182745
v -0.516935 -0.030728 -2.044233
v -0.895357 -0.030728 -1.665811
v -1.033869 -0.030728 -1.148876
v -0.895357 -0.030728 -0.631942
v -0.516935 -0.030728 -0.253519
v -0.000000 -0.030728 -0.115007
v 0.516934 -0.030728 -0.253519
v 0.895357 -0.030728 -0.631941
v 1.033869 -0.030728 -1.148876
v 0.895357 -0.030728 -1.665810
v 0.516935 -0.030728 -2.044233
v -0.500000 0.174593 -2.014902
v -0.866025 0.174593 -1.648876
v -1.000000 0.174593 -1.148876
v -0.866025 0.174593 -0.648876
v -0.500000 0.174593 -0.282851
v -0.000000 0.174593 -0.148876
v 0.500000 0.174593 -0.282851
v 0.866025 0.174593 -0.648876
v 1.000000 0.174593 -1.148876
v 0.866026 0.174593 -1.648876
v 0.500001 0.174593 -2.014901
v 0.000000 0.174593 -2.148876
v -0.387462 0.329333 -1.819979
v -0.671103 0.329333 -1.536338
v -0.774923 0.329333 -1.148876
v -0.671103 0.329333 -0.761415
v -0.387462 0.329333 -0.477773
v -0.000000 0.329333 -0.373953
v 0.387461 0.329333 -0.477773
v 0.671103 0.329333 -0.761415
v 0.774923 0.329333 -1.148876
v 0.671103 0.329333 -1.536337
v 0.387462 0.329333 -1.819979
v 0.000000 0.329333 -1.923799
vt 0.4356 0.7425
vt 0.0666 0.7425
vt 0.2511 0.5030
vt 0.5675 0.4734
vt 0.6430 0.5265
vt 0.5617 0.4778
vt 0.5323 0.3685
vt 0.5611 0.2608
vt 0.5394 0.3685
vt 0.6390 0.1449
vt 0.5675 0.2637
vt 0.7491 0.0445
vt 0.7491 0.0368
vt 0.8593 0.1449
vt 0.9308 0.2637
vt 0.9371 0.2608
vt 0.9589 0.3685
vt 0.9660 0.3685
vt 0.9308 0.4734
vt 0.9366 0.4778
vt 0.8552 0.5265
vt 0.7491 0.5047
vt 0.8540 0.5193
vt 0.6442 0.5193
vt 0.6084 0.2873
vt 0.8899 0.2873
vt 0.7491 0.4612
vt 0.6084 0.4498
vt 0.5866 0.3685
vt 0.6679 0.1902
vt 0.6442 0.1493
vt 0.7491 0.0917
vt 0.8540 0.1493
vt 0.8304 0.1902
vt 0.9117 0.3685
vt 0.8899 0.4498
vt 0.7491 0.4977
vt 0.8304 0.4785
vt 0.6679 0.4785
vt 0.4382 0.3669
vt 0.2511 0.4749
vt 0.0639 0.1508
vt 0.5651 0.8530
vt 0.6400 0.9379
vt 0.5588 0.8567
vt 0.5363 0.7456
vt 0.5290 0.7456
vt 0.5588 0.6346
vt 0.6437 0.5596
vt 0.6400 0.5533
vt 0.7511 0.5308
vt 0.7511 0.5236
vt 0.8585 0.5596
vt 0.8621 0.5533
vt 0.9371 0.6382
vt 0.9434 0.6346
vt 0.9732 0.7456
vt 0.9371 0.8530
vt 0.9434 0.8567
vt 0.8585 0.9316
vt 0.8621 0.9379
vt 0.7511 0.9604
vt 0.7511 0.9677
vt 0.6437 0.9316
vt 0.7511 0.5792
vt 0.8952 0.6624
vt 0.7511 0.9121
vt 0.6069 0.8289
vt 0.5846 0.7456
vt 0.6069 0.6624
vt 0.5651 0.6382
vt 0.6678 0.6015
vt 0.8343 0.6015
vt 0.9175 0.7456
vt 0.9659 0.7456
vt 0.8952 0.8289
vt 0.8343 0.8898
vt 0.6678 0.8898
vt 0.0671 0.5295
vt 0.1469 0.4816
vt 0.0382 0.6367
vt 0.3552 0.4816
vt 0.4639 0.6367
vt 0.4351 0.5295
vt 0.3592 0.8562
vt 0.2511 0.9623
vt 0.1430 0.8562
vt 0.1430 0.0717
vt 0.4382 0.1508
vt 0.2511 0.0428
vt 0.3591 0.0717
vt 0.4672 0.2588
vt 0.3591 0.4460
vt 0.1430 0.4460
vt 0.0639 0.3669
vt 0.0350 0.2588
vn 0.0000 -1.0000 -0.0003
vn -0.5074 0.1554 -0.8476
vn -0.9540 0.1554 -0.2564
vn -0.9538 0.1573 0.2559
vn -0.8197 0.1565 0.5509
vn -0.6953 0.1279 0.7072
vn 0.6953 0.1279 0.7072
vn 0.8197 0.1565 0.5509
vn 0.9538 0.1573 0.2559
vn 0.9540 0.1554 -0.2564
vn 0.5074 0.1554 -0.8476
vn -0.1988 0.1558 -0.9676
vn 0.1988 0.1558 -0.9676
vn 0.0000 1.0000 0.0000
vn -0.3175 0.7859 -0.5306
vn -0.5601 0.8147 -0.1501
vn -0.5601 0.8147 0.1501
vn -0.5048 0.7940 0.3389
vn -0.4926 0.7171 0.4930
vn 0.4926 0.7171 0.4930
vn 0.5048 0.7940 0.3389
vn 0.5601 0.8147 0.1501
vn 0.5601 0.8147 -0.1501
vn 0.3175 0.7859 -0.5306
vn -0.1366 0.7359 -0.6631
vn 0.1366 0.7359 -0.6631
vn 0.0000 -1.0000 -0.0000
vn -0.6983 0.1574 -0.6983
vn -0.9539 0.1574 -0.2556
vn -0.9539 0.1574 0.2556
vn -0.6983 0.1574 0.6983
vn -0.2556 0.1574 0.9539
vn 0.2556 0.1574 0.9539
vn 0.6983 0.1574 0.6983
vn 0.9539 0.1574 0.2556
vn 0.9539 0.1574 -0.2556
vn 0.6983 0.1574 -0.6983
vn 0.2556 0.1574 -0.9539
vn -0.2556 0.1574 -0.9539
vn -0.4100 0.8147 -0.4100
vn -0.4100 0.8147 0.4100
vn -0.1501 0.8147 0.5601
vn 0.1501 0.8147 0.5601
vn 0.4100 0.8147 0.4100
vn 0.4100 0.8147 -0.4100
vn 0.1501 0.8147 -0.5601
vn -0.1501 0.8147 -0.5601
vn -0.0016 -1.0000 -0.0023
vn 0.0022 -1.0000 -0.0027
vn 0.0016 -1.0000 -0.0023
vn 0.0000 -1.0000 -0.0011
vn 0.0000 -1.0000 0.0094
vn -0.0013 -1.0000 -0.0013
vn -0.0022 -1.0000 -0.0027
vn 0.0013 -1.0000 -0.0013
vn -0.5072 0.1558 -0.8476
vn -0.9540 0.1566 0.2556
vn -0.8203 0.1548 0.5506
vn -0.6983 0.1548 0.6989
vn 0.6983 0.1548 0.6989
vn 0.8203 0.1548 0.5506
vn 0.9540 0.1566 0.2556
vn 0.5072 0.1558 -0.8476
vn -0.1993 0.1571 -0.9673
vn 0.1993 0.1571 -0.9673
vn -0.2463 0.8233 -0.5114
vn -0.4832 0.8240 0.2961
vn -0.4563 0.8062 0.3766
vn 0.4563 0.8062 0.3766
vn 0.4832 0.8240 0.2961
vn 0.2463 0.8233 -0.5114
vn -0.1396 0.7402 -0.6577
vn 0.1396 0.7402 -0.6577
usemtl Material.001
s off
f 9/1/1 5/2/1 1/3/1
f 14/4/2 2/5/2 3/6/2
f 4/7/3 14/4/3 3/6/3
f 5/8/4 15/9/4 4/7/4
f 6/10/5 16/11/5 5/8/5
f 18/12/6 6/10/6 7/13/6
f 8/14/7 18/12/7 7/13/7
f 20/15/8 8/14/8 9/16/8
f 21/17/9 9/16/9 10/18/9
f 22/19/10 10/18/10 11/20/10
f 12/21/11 22/19/11 11/20/11
f 1/22/12 23/23/12 12/21/12
f 13/24/13 1/22/13 2/5/13
f 28/25/14 32/26/14 36/27/14
f 26/28/15 13/24/15 14/4/15
f 27/29/16 14/4/16 15/9/16
f 16/11/17 27/29/17 15/9/17
f 29/30/18 16/11/18 17/31/18
f 30/32/19 17/31/19 18/12/19
f 19/33/20 30/32/20 18/12/20
f 20/15/21 31/34/21 19/33/21
f 33/35/22 20/15/22 21/17/22
f 34/36/23 21/17/23 22/19/23
f 23/23/24 34/36/24 22/19/24
f 24/37/25 35/38/25 23/23/25
f 25/39/26 24/37/26 13/24/26
f 45/40/27 43/41/27 39/42/27
f 50/43/28 38/44/28 39/45/28
f 51/46/29 39/45/29 40/47/29
f 41/48/30 51/46/30 40/47/30
f 53/49/31 41/48/31 42/50/31
f 54/51/32 42/50/32 43/52/32
f 55/53/33 43/52/33 44/54/33
f 56/55/34 44/54/34 45/56/34
f 46/57/35 56/55/35 45/56/35
f 58/58/36 46/57/36 47/59/36
f 59/60/37 47/59/37 48/61/37
f 60/62/38 48/61/38 37/63/38
f 49/64/39 37/63/39 38/44/39
f 66/65/14 68/66/14 72/67/14
f 62/68/40 49/64/40 50/43/40
f 63/69/16 50/43/16 51/46/16
f 64/70/17 51/46/17 52/71/17
f 65/72/41 52/71/41 53/49/41
f 66/65/42 53/49/42 54/51/42
f 67/73/43 54/51/43 55/53/43
f 68/66/44 55/53/44 56/55/44
f 69/74/22 56/55/22 57/75/22
f 70/76/23 57/75/23 58/58/23
f 71/77/45 58/58/45 59/60/45
f 72/67/46 59/60/46 60/62/46
f 61/78/47 60/62/47 49/64/47
f 3/79/48 2/80/48 4/81/48
f 1/3/49 12/82/49 10/83/49
f 11/84/50 10/83/50 12/82/50
f 9/1/51 8/85/51 5/2/51
f 7/86/52 6/87/52 8/85/52
f 5/2/53 4/81/53 1/3/53
f 2/80/54 1/3/54 4/81/54
f 10/83/55 9/1/55 1/3/55
f 6/87/51 5/2/51 8/85/51
f 14/4/56 13/24/56 2/5/56
f 4/7/29 15/9/29 14/4/29
f 5/8/57 16/11/57 15/9/57
f 6/10/58 17/31/58 16/11/58
f 18/12/59 17/31/59 6/10/59
f 8/14/60 19/33/60 18/12/60
f 20/15/61 19/33/61 8/14/61
f 21/17/62 20/15/62 9/16/62
f 22/19/36 21/17/36 10/18/36
f 12/21/63 23/23/63 22/19/63
f 1/22/64 24/37/64 23/23/64
f 13/24/65 24/37/65 1/22/65
f 36/27/14 25/39/14 27/29/14
f 26/28/14 27/29/14 25/39/14
f 28/25/14 29/30/14 31/34/14
f 30/32/14 31/34/14 29/30/14
f 32/26/14 33/35/14 36/27/14
f 34/36/14 35/38/14 33/35/14
f 36/27/14 27/29/14 28/25/14
f 28/25/14 31/34/14 32/26/14
f 33/35/14 35/38/14 36/27/14
f 26/28/66 25/39/66 13/24/66
f 27/29/16 26/28/16 14/4/16
f 16/11/17 28/25/17 27/29/17
f 29/30/67 28/25/67 16/11/67
f 30/32/68 29/30/68 17/31/68
f 19/33/69 31/34/69 30/32/69
f 20/15/70 32/26/70 31/34/70
f 33/35/22 32/26/22 20/15/22
f 34/36/23 33/35/23 21/17/23
f 23/23/71 35/38/71 34/36/71
f 24/37/72 36/27/72 35/38/72
f 25/39/73 36/27/73 24/37/73
f 39/42/27 38/88/27 47/89/27
f 37/90/27 48/91/27 47/89/27
f 47/89/27 46/92/27 45/40/27
f 45/40/27 44/93/27 43/41/27
f 43/41/27 42/94/27 41/95/27
f 41/95/27 40/96/27 43/41/27
f 38/88/27 37/90/27 47/89/27
f 47/89/27 45/40/27 39/42/27
f 43/41/27 40/96/27 39/42/27
f 50/43/28 49/64/28 38/44/28
f 51/46/29 50/43/29 39/45/29
f 41/48/30 52/71/30 51/46/30
f 53/49/31 52/71/31 41/48/31
f 54/51/32 53/49/32 42/50/32
f 55/53/33 54/51/33 43/52/33
f 56/55/34 55/53/34 44/54/34
f 46/57/35 57/75/35 56/55/35
f 58/58/36 57/75/36 46/57/36
f 59/60/37 58/58/37 47/59/37
f 60/62/38 59/60/38 48/61/38
f 49/64/39 60/62/39 37/63/39
f 72/67/14 61/78/14 62/68/14
f 62/68/14 63/69/14 72/67/14
f 64/70/14 65/72/14 66/65/14
f 66/65/14 67/73/14 68/66/14
f 68/66/14 69/74/14 72/67/14
f 70/76/14 71/77/14 72/67/14
f 72/67/14 63/69/14 64/70/14
f 64/70/14 66/65/14 72/67/14
f 69/74/14 70/76/14 72/67/14
f 62/68/40 61/78/40 49/64/40
f 63/69/16 62/68/16 50/43/16
f 64/70/17 63/69/17 51/46/17
f 65/72/41 64/70/41 52/71/41
f 66/65/42 65/72/42 53/49/42
f 67/73/43 66/65/43 54/51/43
f 68/66/44 67/73/44 55/53/44
f 69/74/22 68/66/22 56/55/22
f 70/76/23 69/74/23 57/75/23
f 71/77/45 70/76/45 58/58/45
f 72/67/46 71/77/46 59/60/46
f 61/78/47 72/67/47 60/62/47
