# Blender v2.78 (sub 0) OBJ File: 'cookie.blend'
# www.blender.org
mtllib cookie.mtl
o Circle
v 0.000000 -0.031227 -0.058104
v -0.505785 -0.029861 -0.161817
v -0.893705 -0.029759 0.070425
v -1.033869 -0.030728 0.591322
v -0.896184 -0.031568 1.105025
v -0.525136 -0.032188 1.657276
v 0.000000 -0.027336 2.172670
v 0.525136 -0.032188 1.657276
v 0.896184 -0.031568 1.105025
v 1.033869 -0.030728 0.591322
v 0.893705 -0.029759 0.070425
v 0.505785 -0.029861 -0.161817
v -0.500000 0.174593 -0.127706
v -0.866025 0.174593 0.091322
v -1.000000 0.174593 0.591322
v -0.866025 0.174593 1.091322
v -0.500000 0.174593 1.636592
v 0.000000 0.174593 2.136148
v 0.500000 0.174593 1.636592
v 0.866025 0.174593 1.091322
v 1.000000 0.174593 0.591322
v 0.866025 0.174593 0.091322
v 0.500000 0.174593 -0.127706
v 0.000000 0.174593 -0.024672
v -0.387462 0.329333 0.067217
v -0.671103 0.329333 0.203860
v -0.774923 0.329333 0.591322
v -0.671103 0.329333 0.978783
v -0.387462 0.329333 1.441670
v 0.000000 0.329333 1.911071
v 0.387462 0.329333 1.441670
v 0.671103 0.329333 0.978783
v 0.774923 0.329333 0.591322
v 0.671103 0.329333 0.203860
v 0.387462 0.329333 0.067217
v 0.000000 0.329333 0.149478
v 0.000000 -0.030728 -2.182745
v -0.516935 -0.030728 -2.044233
v -0.895357 -0.030728 -1.665811
v -1.033869 -0.030728 -1.148876
v -0.895357 -0.030728 -0.631942
v -0.516935 -0.030728 -0.253519
v -0.000000 -0.030728 -0.115007
v 0.516934 -0.030728 -0.253519
v 0.895357 -0.030728 -0.631941
v 1.033869 -0.030728 -1.148876
v 0.895357 -0.030728 -1.665810
v 0.516935 -0.030728 -2.044233
v -0.500000 0.174593 -2.014902
v -0.866025 0.174593 -1.648876
v -1.000000 0.174593 -1.148876
v -0.866025 0.174593 -0.648876
v -0.500000 0.174593 -0.282851
v -0.000000 0.174593 -0.148876
v 0.500000 0.174593 -0.282851
v 0.866025 0.174593 -0.648876
v 1.000000 0.174593 -1.148876
v 0.866026 0.174593 -1.648876
v 0.500001 0.174593 -2.014901
v 0.000000 0.174593 -2.148876
v -0.387462 0.329333 -1.819979
v -0.671103 0.329333 -1.536338
v -0.774923 0.329333 -1.148876
v -0.671103 0.329333 -0.761415
v -0.387462 0.329333 -0.477773
v -0.000000 0.329333 -0.373953
v 0.387461 0.329333 -0.477773
v 0.671103 0.329333 -0.761415
v 0.774923 0.329333 -1.148876
v 0.671103 0.329333 -1.536337
v 0.387462 0.329333 -1.819979
v 0.000000 0.329333 -1.923799
vt 0.1469 0.4816
vt 0.2511 0.5030
vt 0.3552 0.4816
vt 0.4351 0.5295
vt 0.4639 0.6367
vt 0.4356 0.7425
vt 0.3592 0.8562
vt 0.2511 0.9623
vt 0.1430 0.8562
vt 0.0666 0.7425
vt 0.0382 0.6367
vt 0.0671 0.5295
vt 0.5617 0.4778
vt 0.5675 0.4734
vt 0.6442 0.5193
vt 0.6430 0.5265
vt 0.5323 0.3685
vt 0.5394 0.3685
vt 0.5611 0.2608
vt 0.5675 0.2637
vt 0.6390 0.1449
vt 0.6442 0.1493
vt 0.7491 0.0368
vt 0.7491 0.0445
vt 0.8593 0.1449
vt 0.8540 0.1493
vt 0.9371 0.2608
vt 0.9308 0.2637
vt 0.9660 0.3685
vt 0.9589 0.3685
vt 0.9366 0.4778
vt 0.9308 0.4734
vt 0.8552 0.5265
vt 0.8540 0.5193
vt 0.7491 0.5047
vt 0.7491 0.4977
vt 0.6679 0.4785
vt 0.6084 0.4498
vt 0.5866 0.3685
vt 0.6084 0.2873
vt 0.6679 0.1902
vt 0.7491 0.0917
vt 0.8304 0.1902
vt 0.8899 0.2873
vt 0.9117 0.3685
vt 0.8899 0.4498
vt 0.8304 0.4785
vt 0.7491 0.4612
vt 0.1430 0.0717
vt 0.2511 0.0428
vt 0.3591 0.0717
vt 0.4382 0.1508
vt 0.4672 0.2588
vt 0.4382 0.3669
vt 0.3591 0.4460
vt 0.2511 0.4749
vt 0.1430 0.4460
vt 0.0639 0.3669
vt 0.0350 0.2588
vt 0.0639 0.1508
vt 0.5588 0.8567
vt 0.5651 0.8530
vt 0.6437 0.9316
vt 0.6400 0.9379
vt 0.5290 0.7456
vt 0.5363 0.7456
vt 0.5588 0.6346
vt 0.5651 0.6382
vt 0.6400 0.5533
vt 0.6437 0.5596
vt 0.7511 0.5236
vt 0.7511 0.5308
vt 0.8621 0.5533
vt 0.8585 0.5596
vt 0.9434 0.6346
vt 0.9371 0.6382
vt 0.9732 0.7456
vt 0.9659 0.7456
vt 0.9434 0.8567
vt 0.9371 0.8530
vt 0.8621 0.9379
vt 0.8585 0.9316
vt 0.7511 0.9677
vt 0.7511 0.9604
vt 0.6678 0.8898
vt 0.6069 0.8289
vt 0.5846 0.7456
vt 0.6069 0.6624
vt 0.6678 0.6015
vt 0.7511 0.5792
vt 0.8343 0.6015
vt 0.8952 0.6624
vt 0.9175 0.7456
vt 0.8952 0.8289
vt 0.8343 0.8898
vt 0.7511 0.9121
vn -0.0000 -1.0000 -0.0003
vn -0.5073 0.1556 -0.8476
vn -0.9539 0.1564 -0.2560
vn -0.9539 0.1569 0.2558
vn -0.8200 0.1557 0.5508
vn -0.6968 0.1413 0.7032
vn 0.6968 0.1413 0.7032
vn 0.8200 0.1557 0.5508
vn 0.9539 0.1569 0.2558
vn 0.9539 0.1564 -0.2560
vn 0.5073 0.1556 -0.8476
vn -0.1991 0.1565 -0.9674
vn 0.1991 0.1565 -0.9674
vn 0.0000 1.0000 -0.0000
vn -0.2860 0.8032 -0.5225
vn -0.5601 0.8147 -0.1501
vn -0.5601 0.8147 0.1501
vn -0.4948 0.8084 0.3189
vn -0.4756 0.7642 0.4356
vn 0.4756 0.7642 0.4356
vn 0.4948 0.8084 0.3189
vn 0.5601 0.8147 0.1501
vn 0.5601 0.8147 -0.1501
vn 0.2860 0.8032 -0.5225
vn -0.1380 0.7378 -0.6608
vn 0.1380 0.7378 -0.6608
vn 0.0000 -1.0000 -0.0000
vn -0.6983 0.1574 -0.6983
vn -0.9539 0.1574 -0.2556
vn -0.9539 0.1574 0.2556
vn -0.6983 0.1574 0.6983
vn -0.2556 0.1574 0.9539
vn 0.2556 0.1574 0.9539
vn 0.6983 0.1574 0.6983
vn 0.9539 0.1574 0.2556
vn 0.9539 0.1574 -0.2556
vn 0.6983 0.1574 -0.6983
vn 0.2556 0.1574 -0.9539
vn -0.2556 0.1574 -0.9539
vn -0.4100 0.8147 -0.4100
vn -0.4100 0.8147 0.4100
vn -0.1501 0.8147 0.5601
vn 0.1501 0.8147 0.5601
vn 0.4100 0.8147 0.4100
vn 0.4100 0.8147 -0.4100
vn 0.1501 0.8147 -0.5601
vn -0.1501 0.8147 -0.5601
usemtl Material.001
s off
f 2/1/1 1/2/1 12/3/1 11/4/1 10/5/1 9/6/1 8/7/1 7/8/1 6/9/1 5/10/1 4/11/1 3/12/1
f 3/13/2 14/14/2 13/15/2 2/16/2
f 4/17/3 15/18/3 14/14/3 3/13/3
f 5/19/4 16/20/4 15/18/4 4/17/4
f 6/21/5 17/22/5 16/20/5 5/19/5
f 7/23/6 18/24/6 17/22/6 6/21/6
f 8/25/7 19/26/7 18/24/7 7/23/7
f 9/27/8 20/28/8 19/26/8 8/25/8
f 10/29/9 21/30/9 20/28/9 9/27/9
f 11/31/10 22/32/10 21/30/10 10/29/10
f 12/33/11 23/34/11 22/32/11 11/31/11
f 1/35/12 24/36/12 23/34/12 12/33/12
f 2/16/13 13/15/13 24/36/13 1/35/13
f 25/37/14 26/38/14 27/39/14 28/40/14 29/41/14 30/42/14 31/43/14 32/44/14 33/45/14 34/46/14 35/47/14 36/48/14
f 14/14/15 26/38/15 25/37/15 13/15/15
f 15/18/16 27/39/16 26/38/16 14/14/16
f 16/20/17 28/40/17 27/39/17 15/18/17
f 17/22/18 29/41/18 28/40/18 16/20/18
f 18/24/19 30/42/19 29/41/19 17/22/19
f 19/26/20 31/43/20 30/42/20 18/24/20
f 20/28/21 32/44/21 31/43/21 19/26/21
f 21/30/22 33/45/22 32/44/22 20/28/22
f 22/32/23 34/46/23 33/45/23 21/30/23
f 23/34/24 35/47/24 34/46/24 22/32/24
f 24/36/25 36/48/25 35/47/25 23/34/25
f 13/15/26 25/37/26 36/48/26 24/36/26
f 38/49/27 37/50/27 48/51/27 47/52/27 46/53/27 45/54/27 44/55/27 43/56/27 42/57/27 41/58/27 40/59/27 39/60/27
f 39/61/28 50/62/28 49/63/28 38/64/28
f 40/65/29 51/66/29 50/62/29 39/61/29
f 41/67/30 52/68/30 51/66/30 40/65/30
f 42/69/31 53/70/31 52/68/31 41/67/31
f 43/71/32 54/72/32 53/70/32 42/69/32
f 44/73/33 55/74/33 54/72/33 43/71/33
f 45/75/34 56/76/34 55/74/34 44/73/34
f 46/77/35 57/78/35 56/76/35 45/75/35
f 47/79/36 58/80/36 57/78/36 46/77/36
f 48/81/37 59/82/37 58/80/37 47/79/37
f 37/83/38 60/84/38 59/82/38 48/81/38
f 38/64/39 49/63/39 60/84/39 37/83/39
f 61/85/14 62/86/14 63/87/14 64/88/14 65/89/14 66/90/14 67/91/14 68/92/14 69/93/14 70/94/14 71/95/14 72/96/14
f 50/62/40 62/86/40 61/85/40 49/63/40
f 51/66/16 63/87/16 62/86/16 50/62/16
f 52/68/17 64/88/17 63/87/17 51/66/17
f 53/70/41 65/89/41 64/88/41 52/68/41
f 54/72/42 66/90/42 65/89/42 53/70/42
f 55/74/43 67/91/43 66/90/43 54/72/43
f 56/76/44 68/92/44 67/91/44 55/74/44
f 57/78/22 69/93/22 68/92/22 56/76/22
f 58/80/23 70/94/23 69/93/23 57/78/23
f 59/82/45 71/95/45 70/94/45 58/80/45
f 60/84/46 72/96/46 71/95/46 59/82/46
f 49/63/47 61/85/47 72/96/47 60/84/47
