# Blender v2.78 (sub 0) OBJ File: 'ugkFNL.blend'
# www.blender.org
mtllib ugklh.mtl
o LH_Plane.003
v -0.036795 -0.179753 -0.089568
v 0.053704 -0.165438 -0.151428
v 0.128559 -0.165324 -0.161567
v 0.205952 -0.185879 -0.123007
v 0.234400 -0.205765 -0.033824
v 0.216035 -0.238920 0.084579
v -0.208735 -0.318839 -0.065020
v -0.117173 -0.336459 -0.287597
v 0.069934 -0.336173 -0.312938
v 0.293598 -0.288255 -0.207624
v 0.369601 -0.376745 -0.000433
v 0.251295 -0.428702 0.196759
v -0.055889 -0.226101 0.044740
v 0.070221 -0.255614 0.131604
v -0.107958 -0.353481 0.075017
v 0.143315 -0.409778 0.208806
v -0.120543 -0.213888 -0.043432
v -0.074535 -0.161206 -0.185547
v 0.092346 -0.152993 -0.197985
v 0.216411 -0.164480 -0.098226
v 0.325566 -0.235818 0.028254
v 0.229228 -0.283375 0.183372
v -0.075711 -0.232946 0.059946
v 0.143788 -0.264296 0.194664
v -0.280003 -0.108490 -0.000508
v -0.192420 -0.005178 -0.226881
v 0.067511 0.007616 -0.246255
v 0.260751 -0.010277 -0.090872
v 0.430767 -0.121391 0.106130
v 0.280714 -0.195464 0.347738
v -0.210175 -0.138173 0.160510
v 0.147635 -0.165748 0.365325
v -0.142488 0.068113 0.041245
v -0.122437 0.151096 -0.210966
v 0.125060 0.141439 -0.151287
v 0.261857 0.128773 -0.041290
v 0.382213 0.050114 0.098170
v 0.275988 -0.002323 0.269206
v -0.093056 0.047100 0.155231
v 0.089346 -0.051125 0.327555
v -0.187773 0.244196 0.129561
v -0.175544 0.295725 -0.000968
v 0.033716 0.233525 -0.055501
v 0.180367 0.218537 0.046546
v 0.291109 0.116160 0.185629
v 0.195733 0.131421 0.369905
v -0.132773 0.232233 0.242300
v 0.095731 0.148807 0.385460
v -0.112292 0.091344 -0.023390
v -0.156184 0.162419 0.023755
v -0.029639 0.253906 -0.056619
v -0.205581 0.194755 -0.127498
v -0.140711 0.228494 -0.205013
v -0.078575 0.275787 -0.103953
v -0.210423 0.278796 -0.066594
v -0.159646 0.351201 -0.163358
v -0.155219 0.278236 0.010556
v -0.072808 0.340041 -0.018353
v -0.200637 0.365562 -0.047785
v -0.170323 0.408789 -0.105553
v -0.167679 0.365228 -0.001726
v -0.118480 0.402126 -0.018984
v -0.193608 0.453775 -0.016804
v 0.169437 0.244390 -0.133813
v 0.260262 0.248852 -0.039584
v 0.173040 0.261955 0.028457
v 0.164564 0.331795 -0.098582
v 0.224514 0.334740 -0.036386
v 0.166942 0.343389 0.008524
v 0.156397 0.454641 -0.021917
vt 0.9448 0.4936
vt 0.9664 0.4888
vt 0.9482 0.5015
vt 0.9486 0.5359
vt 0.9691 0.5299
vt 0.9664 0.5458
vt 0.5818 0.9490
vt 0.5944 0.9753
vt 0.5714 0.9553
vt 0.9686 0.5101
vt 0.9520 0.5105
vt 0.9504 0.5212
vt 0.6023 0.9534
vt 0.5930 0.9399
vt 0.6049 0.9393
vt 0.5793 0.9173
vt 0.6028 0.9116
vt 0.5915 0.9265
vt 0.9627 0.5562
vt 0.9805 0.5496
vt 0.9801 0.5604
vt 0.9827 0.5293
vt 0.9865 0.4741
vt 0.9862 0.4933
vt 0.6181 0.9146
vt 0.6164 0.9414
vt 0.6153 0.9534
vt 0.6181 0.9708
vt 0.9865 0.5105
vt 0.9275 0.8368
vt 0.9073 0.8470
vt 0.9023 0.8336
vt 0.9270 0.8488
vt 0.9095 0.8681
vt 0.2881 0.9607
vt 0.3121 0.9542
vt 0.3047 0.9760
vt 0.9251 0.9093
vt 0.9073 0.8910
vt 0.9234 0.8912
vt 0.3087 0.9112
vt 0.3171 0.9434
vt 0.3029 0.9364
vt 0.2976 0.9465
vt 0.9254 0.8712
vt 0.9275 0.9294
vt 0.9077 0.9143
vt 0.8978 0.8736
vt 0.8884 0.9322
vt 0.8941 0.9052
vt 0.8910 0.8562
vt 0.8868 0.8344
vt 0.9068 0.9429
vt 0.8798 0.9551
vt 0.8939 0.8902
vt 0.3298 0.9087
vt 0.3363 0.9478
vt 0.3318 0.9611
vt 0.3584 0.9228
vt 0.3584 0.9521
vt 0.3536 0.9642
vt 0.8865 0.8699
vt 0.8762 0.9065
vt 0.3374 0.9195
vt 0.3582 0.9124
vt 0.8706 0.8546
vt 0.3399 0.9684
vt 0.3295 0.9692
vt 0.8807 0.8874
vt 0.8902 0.8947
vt 0.8423 0.8985
vt 0.8422 0.8833
vt 0.8614 0.8566
vt 0.8545 0.9086
vt 0.9634 0.4712
vt 0.9416 0.9539
vt 0.9286 0.9445
vt 0.9813 0.9237
vt 0.9652 0.9457
vt 0.9662 0.9461
vt 0.9656 0.9465
vt 0.8681 0.9096
vt 0.8475 0.9211
vt 0.9813 0.9726
vt 0.9704 0.9479
vt 0.9684 0.9434
vt 0.9660 0.9464
vt 0.9659 0.9465
vt 0.9659 0.9468
vt 0.9665 0.9470
vt 0.9659 0.9466
vt 0.9659 0.9465
vt 0.9661 0.9466
vt 0.8556 0.9311
vt 0.8882 0.8922
vt 0.8895 0.8929
vt 0.8902 0.8921
vt 0.8938 0.8904
vt 0.8894 0.8927
vt 0.8894 0.8927
vt 0.8895 0.8927
vn 0.2267 -0.7352 0.6389
vn 0.2282 -0.7340 -0.6396
vn -0.1450 -0.6929 0.7063
vn -0.4567 -0.6798 -0.5738
vn 0.6062 -0.7802 -0.1543
vn 0.3494 -0.8658 0.3581
vn 0.4576 -0.8838 0.0976
vn -0.3780 -0.6475 -0.6617
vn 0.4065 -0.4036 -0.8197
vn -0.5915 -0.7503 0.2951
vn -0.7567 -0.6484 -0.0830
vn -0.7240 -0.5870 0.3622
vn 0.4132 -0.7487 -0.5185
vn -0.6267 -0.7775 -0.0519
vn -0.3722 -0.8422 0.3900
vn 0.1369 -0.6580 -0.7405
vn 0.5245 -0.4305 0.7345
vn -0.2646 -0.4998 0.8247
vn 0.9917 -0.0662 -0.1106
vn -0.4986 -0.0020 -0.8668
vn 0.2868 0.2120 -0.9342
vn -0.7218 -0.4216 0.5488
vn -0.9832 -0.1722 0.0604
vn 0.7100 0.2757 -0.6481
vn 0.4619 -0.3832 0.7999
vn -0.1698 -0.2784 0.9453
vn 0.9861 -0.1640 -0.0279
vn -0.9853 -0.1706 -0.0042
vn -0.7127 0.0416 -0.7002
vn 0.7008 0.0589 -0.7109
vn -0.7635 -0.2763 0.5838
vn 0.2844 0.0654 -0.9565
vn 0.8887 0.4583 -0.0087
vn -0.3657 0.2654 -0.8921
vn 0.3471 0.5219 -0.7792
vn 0.6774 0.1684 0.7161
vn -0.3823 -0.0953 0.9191
vn -0.9370 0.3207 -0.1388
vn 0.8442 0.3271 -0.4247
vn -0.7748 -0.0132 0.6321
vn -0.9720 0.2201 0.0822
vn -0.1515 0.4176 0.8959
vn -0.5750 0.5116 0.6385
vn -0.8037 0.5309 0.2687
vn 0.7273 0.6219 0.2903
vn 0.2389 0.9251 -0.2952
vn 0.4879 0.3830 0.7844
vn -0.8573 -0.1260 -0.4992
vn 0.3252 0.9011 0.2868
vn -0.2618 0.3170 -0.9116
vn -0.5421 0.7475 -0.3839
vn 0.4086 0.8748 -0.2605
vn 0.7384 0.4136 -0.5327
vn -0.1212 0.5569 -0.8217
vn 0.8024 0.3852 0.4558
vn -0.9481 -0.3158 0.0359
vn -0.0296 0.1954 -0.9803
vn -0.1719 0.7469 -0.6423
vn 0.6591 0.6276 0.4144
vn -0.2392 -0.5177 0.8214
vn -0.9176 -0.3020 0.2585
vn -0.3450 0.0699 0.9360
vn -0.4063 0.8410 0.3572
vn -0.9910 0.0663 0.1164
vn -0.4724 0.2155 0.8546
vn -0.4159 0.3794 -0.8265
vn 0.9768 0.2138 0.0151
vn -0.4221 0.1949 0.8854
vn -0.2270 0.9645 0.1348
vn 0.9029 0.4272 0.0482
usemtl Material.002
s 1
f 2/1/1 9/2/2 3/3/3
f 6/4/4 11/5/5 12/6/6
f 1/7/7 8/8/8 2/9/1
f 3/3/3 10/10/9 4/11/10
f 5/12/11 10/10/9 11/5/5
f 7/13/12 13/14/13 15/15/14
f 6/16/4 16/17/15 14/18/16
f 15/15/14 14/18/16 16/17/15
f 1/7/7 14/18/16 13/14/13
f 16/19/15 22/20/17 24/21/18
f 10/10/9 21/22/19 11/5/5
f 9/2/2 18/23/20 19/24/21
f 15/15/14 24/25/18 23/26/22
f 15/15/14 17/27/23 7/13/12
f 11/5/5 22/20/17 12/6/6
f 7/13/12 18/28/20 8/8/8
f 10/10/9 19/24/21 20/29/24
f 24/30/18 30/31/25 32/32/26
f 22/33/17 29/34/27 30/31/25
f 18/35/20 25/36/28 26/37/29
f 19/38/21 28/39/30 20/40/24
f 24/41/18 31/42/31 23/43/22
f 17/44/23 31/42/31 25/36/28
f 21/45/19 28/39/30 29/34/27
f 18/46/20 27/47/32 19/38/21
f 28/39/30 37/48/33 29/34/27
f 27/47/32 34/49/34 35/50/35
f 32/32/26 38/51/36 40/52/37
f 29/34/27 38/51/36 30/31/25
f 26/53/29 49/54/38 34/49/34
f 28/39/30 35/50/35 36/55/39
f 32/56/26 39/57/40 31/42/31
f 31/42/31 33/58/41 25/36/28
f 39/57/40 48/59/42 47/60/43
f 39/57/40 41/61/44 33/58/41
f 36/55/39 45/62/45 37/48/33
f 34/49/34 43/63/46 35/50/35
f 40/64/37 46/65/47 48/59/42
f 38/51/36 45/62/45 46/66/47
f 33/58/41 50/67/48 49/68/38
f 44/69/49 64/70/50 35/50/35
f 41/71/44 47/72/43 43/63/46
f 48/73/42 46/66/47 44/69/49
f 45/62/45 44/69/49 46/66/47
f 47/72/43 48/73/42 44/69/49
f 44/69/49 43/63/46 47/72/43
f 42/74/51 41/71/44 43/63/46
f 2/1/1 8/75/8 9/2/2
f 6/4/4 5/12/11 11/5/5
f 1/7/7 7/13/12 8/8/8
f 3/3/3 9/2/2 10/10/9
f 5/12/11 4/11/10 10/10/9
f 7/13/12 1/7/7 13/14/13
f 6/4/4 12/6/6 16/19/15
f 15/15/14 13/14/13 14/18/16
f 1/7/7 6/16/4 14/18/16
f 16/19/15 12/6/6 22/20/17
f 10/10/9 20/29/24 21/22/19
f 9/2/2 8/75/8 18/23/20
f 15/15/14 16/17/15 24/25/18
f 15/15/14 23/26/22 17/27/23
f 11/5/5 21/22/19 22/20/17
f 7/13/12 17/27/23 18/28/20
f 10/10/9 9/2/2 19/24/21
f 24/30/18 22/33/17 30/31/25
f 22/33/17 21/45/19 29/34/27
f 18/35/20 17/44/23 25/36/28
f 19/38/21 27/47/32 28/39/30
f 24/41/18 32/56/26 31/42/31
f 17/44/23 23/43/22 31/42/31
f 21/45/19 20/40/24 28/39/30
f 18/46/20 26/53/29 27/47/32
f 28/39/30 36/55/39 37/48/33
f 27/47/32 26/53/29 34/49/34
f 32/32/26 30/31/25 38/51/36
f 29/34/27 37/48/33 38/51/36
f 26/37/29 25/36/28 33/58/41
f 28/39/30 27/47/32 35/50/35
f 32/56/26 40/64/37 39/57/40
f 31/42/31 39/57/40 33/58/41
f 39/57/40 40/64/37 48/59/42
f 39/57/40 47/60/43 41/61/44
f 36/55/39 44/69/49 45/62/45
f 51/76/52 43/77/46 34/78/34
f 40/52/37 38/51/36 46/66/47
f 38/51/36 37/48/33 45/62/45
f 41/61/44 50/67/48 33/58/41
f 35/50/35 43/63/46 44/69/49
f 54/79/53 56/80/54 58/81/55
f 51/82/52 50/83/48 42/74/51
f 49/84/38 51/76/52 52/85/56
f 51/76/52 53/86/57 54/79/53
f 34/78/34 52/85/56 53/86/57
f 58/81/55 60/87/58 62/88/59
f 52/85/56 56/80/54 53/86/57
f 51/76/52 58/81/55 57/89/60
f 51/76/52 55/90/61 52/85/56
f 61/91/62 62/88/59 63/92/63
f 56/80/54 59/93/64 60/87/58
f 58/81/55 61/91/62 57/89/60
f 57/89/60 59/93/64 55/90/61
f 59/93/64 61/91/62 63/92/63
f 62/88/59 60/87/58 63/92/63
f 60/87/58 59/93/64 63/92/63
f 26/37/29 33/58/41 49/68/38
f 51/82/52 42/74/51 43/63/46
f 41/71/44 42/74/51 50/83/48
f 54/79/53 53/86/57 56/80/54
f 49/94/38 50/83/48 51/82/52
f 51/76/52 34/78/34 53/86/57
f 34/78/34 49/84/38 52/85/56
f 58/81/55 56/80/54 60/87/58
f 52/85/56 55/90/61 56/80/54
f 51/76/52 54/79/53 58/81/55
f 51/76/52 57/89/60 55/90/61
f 56/80/54 55/90/61 59/93/64
f 58/81/55 62/88/59 61/91/62
f 57/89/60 61/91/62 59/93/64
f 66/95/65 67/96/66 64/70/50
f 44/69/49 65/97/67 66/95/65
f 36/98/39 64/70/50 65/97/67
f 67/96/66 69/99/68 70/100/69
f 66/95/65 68/101/70 69/99/68
f 65/97/67 67/96/66 68/101/70
f 69/99/68 68/101/70 70/100/69
f 68/101/70 67/96/66 70/100/69
f 44/69/49 66/95/65 64/70/50
f 66/95/65 69/99/68 67/96/66
f 44/69/49 36/98/39 65/97/67
f 36/98/39 35/50/35 64/70/50
f 66/95/65 65/97/67 68/101/70
f 65/97/67 64/70/50 67/96/66
