# Blender v2.78 (sub 0) OBJ File: 'ugkFNL.blend'
# www.blender.org
mtllib ugkrh.mtl
o RH_Plane.002
v 0.113296 -0.213101 -0.083010
v 0.020438 -0.209473 -0.142892
v -0.054660 -0.212935 -0.150278
v -0.130026 -0.230842 -0.106709
v -0.154922 -0.240209 -0.014781
v -0.131668 -0.257617 0.106099
v 0.290686 -0.342643 -0.047475
v 0.192791 -0.390943 -0.262692
v 0.005080 -0.399597 -0.281154
v -0.216674 -0.345698 -0.174700
v -0.282936 -0.409698 0.044499
v -0.156699 -0.432763 0.242269
v 0.138243 -0.241567 0.055261
v 0.016057 -0.263771 0.149588
v 0.195668 -0.362462 0.099309
v -0.049120 -0.409165 0.247986
v 0.199605 -0.238569 -0.036004
v 0.147306 -0.205632 -0.181842
v -0.020071 -0.204180 -0.189224
v -0.140437 -0.206825 -0.084432
v -0.242969 -0.264995 0.053786
v -0.140162 -0.289668 0.210075
v 0.158764 -0.245831 0.070482
v -0.055127 -0.266704 0.215831
v 0.356562 -0.123757 -0.012302
v 0.258294 -0.052499 -0.246513
v -0.002409 -0.050238 -0.258012
v -0.189887 -0.054358 -0.094791
v -0.349588 -0.144962 0.120495
v -0.189458 -0.183391 0.363927
v 0.292949 -0.135068 0.153557
v -0.057010 -0.147624 0.372892
v 0.214348 0.052388 0.011990
v 0.183428 0.102310 -0.247722
v -0.061565 0.092643 -0.178481
v -0.194282 0.089726 -0.062936
v -0.307337 0.025586 0.089467
v -0.193979 -0.001618 0.261795
v 0.169316 0.044380 0.129404
v -0.003991 -0.036930 0.319055
v 0.256222 0.239494 0.075970
v 0.238070 0.273784 -0.059445
v 0.029491 0.198815 -0.098264
v -0.113241 0.192293 0.010041
v -0.215873 0.104883 0.164685
v -0.115301 0.146140 0.342083
v 0.205273 0.240133 0.191217
v -0.015525 0.168409 0.351757
v 0.181326 0.066360 -0.053915
v 0.224177 0.144118 -0.017608
v 0.092027 0.220830 -0.104184
v 0.267596 0.158661 -0.173385
v 0.199164 0.180367 -0.252129
v 0.138644 0.238072 -0.155600
v 0.271424 0.249808 -0.123654
v 0.215107 0.307864 -0.226813
v 0.218744 0.257268 -0.045110
v 0.133348 0.312381 -0.078533
v 0.259210 0.337910 -0.115477
v 0.225589 0.372570 -0.177064
v 0.227760 0.342364 -0.068586
v 0.176778 0.375267 -0.088539
v 0.250086 0.429063 -0.095511
v -0.108939 0.195562 -0.172410
v -0.196835 0.209057 -0.076282
v -0.108013 0.233294 -0.013574
v -0.106012 0.286815 -0.148555
v -0.164028 0.295722 -0.085106
v -0.105401 0.311719 -0.043715
v -0.099722 0.418526 -0.088156
vt 0.9348 0.9002
vt 0.9382 0.8923
vt 0.9563 0.9050
vt 0.9386 0.8581
vt 0.9563 0.8482
vt 0.9590 0.8640
vt 0.9286 0.9100
vt 0.9533 0.9225
vt 0.9420 0.8834
vt 0.9585 0.8837
vt 0.9404 0.8727
vt 0.9778 0.3137
vt 0.9740 0.2997
vt 0.9861 0.2994
vt 0.9981 0.2755
vt 0.9865 0.2858
vt 0.9740 0.2716
vt 0.9981 0.3077
vt 0.9526 0.8379
vt 0.9699 0.8336
vt 0.9704 0.8444
vt 0.9726 0.8646
vt 0.9761 0.9005
vt 0.9763 0.9196
vt 0.9626 0.3027
vt 0.9588 0.2759
vt 0.9646 0.3147
vt 0.9874 0.3351
vt 0.9632 0.3324
vt 0.9763 0.8833
vt 0.2171 0.7786
vt 0.2414 0.7935
vt 0.2274 0.8013
vt 0.2092 0.7893
vt 0.2122 0.8174
vt 0.5667 0.6690
vt 0.5454 0.6767
vt 0.5470 0.6537
vt 0.1760 0.8462
vt 0.1868 0.8302
vt 0.2016 0.8385
vt 0.5667 0.6153
vt 0.5623 0.6408
vt 0.5465 0.6418
vt 0.5634 0.6522
vt 0.1961 0.8105
vt 0.1637 0.8638
vt 0.1897 0.8598
vt 0.2186 0.8285
vt 0.2072 0.8586
vt 0.1984 0.8859
vt 0.2532 0.8064
vt 0.2336 0.8188
vt 0.1761 0.8866
vt 0.1949 0.9113
vt 0.2144 0.8439
vt 0.5482 0.6049
vt 0.5271 0.6384
vt 0.5261 0.6525
vt 0.5051 0.6339
vt 0.5164 0.6069
vt 0.5048 0.6470
vt 0.2294 0.8317
vt 0.2221 0.8687
vt 0.2573 0.8327
vt 0.2464 0.8288
vt 0.5251 0.6609
vt 0.5159 0.6561
vt 0.5048 0.7031
vt 0.5421 0.6779
vt 0.5292 0.6970
vt 0.2538 0.8781
vt 0.2610 0.8656
vt 0.2266 0.8502
vt 0.2403 0.8869
vt 0.5370 0.6119
vt 0.2378 0.9053
vt 0.2610 0.9103
vt 0.2341 0.9120
vt 0.2496 0.9040
vt 0.2497 0.9036
vt 0.2500 0.9037
vt 0.2544 0.8938
vt 0.2512 0.8892
vt 0.2514 0.9020
vt 0.2515 0.9044
vt 0.2498 0.9036
vt 0.2498 0.9036
vt 0.2497 0.9034
vt 0.2499 0.9032
vt 0.2498 0.9035
vt 0.2498 0.9035
vt 0.2498 0.9035
vt 0.2590 0.9038
vt 0.5221 0.7009
vt 0.5260 0.7005
vt 0.5271 0.7038
vt 0.5421 0.7215
vt 0.5256 0.7008
vt 0.5255 0.7008
vt 0.5257 0.7011
vn -0.1805 -0.6555 0.7333
vn 0.1915 -0.5937 0.7816
vn -0.2226 -0.8154 -0.5345
vn 0.4618 -0.7323 -0.5005
vn -0.3073 -0.8242 0.4756
vn -0.5831 -0.8117 -0.0340
vn -0.4231 -0.8781 0.2234
vn 0.3793 -0.7137 -0.5888
vn 0.6264 -0.6887 0.3651
vn -0.4179 -0.5158 -0.7479
vn 0.7759 -0.6302 -0.0285
vn 0.7552 -0.5143 0.4065
vn 0.6516 -0.7582 0.0231
vn -0.4029 -0.8203 -0.4059
vn -0.1372 -0.7498 -0.6473
vn 0.4136 -0.7746 0.4784
vn 0.3079 -0.3836 0.8706
vn -0.4856 -0.3505 0.8008
vn -0.9917 -0.1101 -0.0659
vn -0.3235 0.0838 -0.9425
vn 0.4706 -0.0958 -0.8771
vn 0.7531 -0.3268 0.5710
vn 0.9901 -0.1329 0.0462
vn -0.7393 0.1700 -0.6515
vn 0.2092 -0.1519 0.9660
vn -0.4227 -0.2934 0.8575
vn -0.9801 -0.1964 0.0281
vn 0.6883 -0.0250 -0.7250
vn 0.9901 -0.1394 -0.0181
vn -0.7246 -0.0526 -0.6872
vn 0.7908 -0.1770 0.5860
vn -0.3167 -0.0643 -0.9463
vn -0.9040 0.4261 -0.0340
vn -0.3897 0.4088 -0.8253
vn 0.3278 0.1621 -0.9307
vn 0.4143 0.0330 0.9095
vn -0.6599 0.2363 0.7133
vn 0.9203 0.3293 -0.2111
vn -0.8681 0.2449 -0.4317
vn 0.7944 0.0902 0.6006
vn 0.9658 0.2584 0.0192
vn 0.5767 0.6053 0.5486
vn 0.1651 0.5315 0.8308
vn 0.7927 0.5850 0.1714
vn -0.7391 0.6308 0.2363
vn -0.2804 0.8728 -0.3996
vn -0.4759 0.4635 0.7474
vn 0.8449 -0.1614 -0.5099
vn -0.3473 0.9196 0.1836
vn 0.2215 0.2077 -0.9528
vn 0.5032 0.7095 -0.4933
vn -0.4470 0.8220 -0.3528
vn -0.7689 0.3204 -0.5533
vn -0.8005 0.4147 0.4327
vn 0.0756 0.4525 -0.8885
vn 0.9593 -0.2795 0.0410
vn -0.0083 0.0713 -0.9974
vn -0.6672 0.6542 0.3562
vn 0.1253 0.6651 -0.7362
vn 0.2831 -0.4026 0.8705
vn 0.9353 -0.2388 0.2612
vn 0.3718 0.1977 0.9070
vn 0.3878 0.8914 0.2348
vn 0.9912 0.1109 0.0717
vn 0.4914 0.3357 0.8036
vn 0.3759 0.2850 -0.8817
vn -0.9827 0.1839 0.0233
vn 0.1973 0.9803 0.0052
vn 0.4428 0.3177 0.8384
vn -0.9153 0.4020 0.0268
usemtl Material.002
s 1
f 2/1/1 3/2/2 9/3/3
f 6/4/4 12/5/5 11/6/6
f 1/7/7 2/1/1 8/8/8
f 3/2/2 4/9/9 10/10/10
f 5/11/11 11/6/6 10/10/10
f 7/12/12 15/13/13 13/14/14
f 6/15/4 14/16/15 16/17/16
f 15/13/13 16/17/16 14/16/15
f 1/18/7 13/14/14 14/16/15
f 16/19/16 24/20/17 22/21/18
f 10/10/10 11/6/6 21/22/19
f 9/3/3 19/23/20 18/24/21
f 15/13/13 23/25/22 24/26/17
f 15/13/13 7/12/12 17/27/23
f 11/6/6 12/5/5 22/21/18
f 7/12/12 8/28/8 18/29/21
f 10/10/10 20/30/24 19/23/20
f 24/31/17 32/32/25 30/33/26
f 22/34/18 30/33/26 29/35/27
f 18/36/21 26/37/28 25/38/29
f 19/39/20 20/40/24 28/41/30
f 24/42/17 23/43/22 31/44/31
f 17/45/23 25/38/29 31/44/31
f 21/46/19 29/35/27 28/41/30
f 18/47/21 19/39/20 27/48/32
f 28/41/30 29/35/27 37/49/33
f 27/48/32 35/50/34 34/51/35
f 32/32/25 40/52/36 38/53/37
f 29/35/27 30/33/26 38/53/37
f 26/54/28 34/51/35 49/55/38
f 28/41/30 36/56/39 35/50/34
f 32/57/25 31/44/31 39/58/40
f 31/44/31 25/38/29 33/59/41
f 39/58/40 47/60/42 48/61/43
f 39/58/40 33/59/41 41/62/44
f 36/56/39 37/49/33 45/63/45
f 34/51/35 35/50/34 43/64/46
f 40/52/36 48/65/43 46/66/47
f 38/53/37 46/66/47 45/63/45
f 33/59/41 49/67/38 50/68/48
f 44/69/49 35/70/34 64/71/50
f 41/72/44 43/64/46 47/73/42
f 48/65/43 44/74/49 46/66/47
f 45/63/45 46/66/47 44/74/49
f 47/73/42 44/74/49 48/65/43
f 44/74/49 47/73/42 43/64/46
f 42/75/51 43/64/46 41/72/44
f 2/1/1 9/3/3 8/8/8
f 6/4/4 11/6/6 5/11/11
f 1/18/7 8/28/8 7/12/12
f 3/2/2 10/10/10 9/3/3
f 5/11/11 10/10/10 4/9/9
f 7/12/12 13/14/14 1/18/7
f 6/4/4 16/19/16 12/5/5
f 15/13/13 14/16/15 13/14/14
f 1/18/7 14/16/15 6/15/4
f 16/19/16 22/21/18 12/5/5
f 10/10/10 21/22/19 20/30/24
f 9/3/3 18/24/21 8/8/8
f 15/13/13 24/26/17 16/17/16
f 15/13/13 17/27/23 23/25/22
f 11/6/6 22/21/18 21/22/19
f 7/12/12 18/29/21 17/27/23
f 10/10/10 19/23/20 9/3/3
f 24/31/17 30/33/26 22/34/18
f 22/34/18 29/35/27 21/46/19
f 18/36/21 25/38/29 17/45/23
f 19/39/20 28/41/30 27/48/32
f 24/42/17 31/44/31 32/57/25
f 17/45/23 31/44/31 23/43/22
f 21/46/19 28/41/30 20/40/24
f 18/47/21 27/48/32 26/54/28
f 28/41/30 37/49/33 36/56/39
f 27/48/32 34/51/35 26/54/28
f 32/32/25 38/53/37 30/33/26
f 29/35/27 38/53/37 37/49/33
f 26/37/28 33/59/41 25/38/29
f 28/41/30 35/50/34 27/48/32
f 32/57/25 39/58/40 40/76/36
f 31/44/31 33/59/41 39/58/40
f 39/58/40 48/61/43 40/76/36
f 39/58/40 41/62/44 47/60/42
f 36/56/39 45/63/45 44/74/49
f 51/77/52 34/78/35 43/79/46
f 40/52/36 46/66/47 38/53/37
f 38/53/37 45/63/45 37/49/33
f 41/62/44 33/59/41 50/68/48
f 35/50/34 44/74/49 43/64/46
f 54/80/53 58/81/54 56/82/55
f 51/77/52 42/75/51 50/83/48
f 49/84/38 52/85/56 51/77/52
f 51/77/52 54/80/53 53/86/57
f 34/78/35 53/86/57 52/85/56
f 58/81/54 62/87/58 60/88/59
f 52/85/56 53/86/57 56/82/55
f 51/77/52 57/89/60 58/81/54
f 51/77/52 52/85/56 55/90/61
f 61/91/62 63/92/63 62/87/58
f 56/82/55 60/88/59 59/93/64
f 58/81/54 57/89/60 61/91/62
f 57/89/60 55/90/61 59/93/64
f 59/93/64 63/92/63 61/91/62
f 62/87/58 63/92/63 60/88/59
f 60/88/59 63/92/63 59/93/64
f 26/37/28 49/67/38 33/59/41
f 51/77/52 43/79/46 42/75/51
f 41/72/44 50/83/48 42/75/51
f 54/80/53 56/82/55 53/86/57
f 49/94/38 51/77/52 50/83/48
f 51/77/52 53/86/57 34/78/35
f 34/78/35 52/85/56 49/84/38
f 58/81/54 60/88/59 56/82/55
f 52/85/56 56/82/55 55/90/61
f 51/77/52 58/81/54 54/80/53
f 51/77/52 55/90/61 57/89/60
f 56/82/55 59/93/64 55/90/61
f 58/81/54 61/91/62 62/87/58
f 57/89/60 59/93/64 61/91/62
f 66/95/65 64/71/50 67/96/66
f 44/69/49 66/95/65 65/97/67
f 36/98/39 65/97/67 64/71/50
f 67/96/66 70/99/68 69/100/69
f 66/95/65 69/100/69 68/101/70
f 65/97/67 68/101/70 67/96/66
f 69/100/69 70/99/68 68/101/70
f 68/101/70 70/99/68 67/96/66
f 44/69/49 64/71/50 66/95/65
f 66/95/65 67/96/66 69/100/69
f 44/69/49 65/97/67 36/98/39
f 36/98/39 64/71/50 35/70/34
f 66/95/65 68/101/70 65/97/67
f 65/97/67 67/96/66 64/71/50
